# File created by Blade
# Date/Time:  Tue Sep 30 19:07:19 2014
#---------------------------------------------------------
:version 1.10
:name HOM
:units
  mass 1.0
  length 1.000000
  angle deg
:documentation
     Acclaim Skeleton File
:root
   axis xyz
   order TX TY TZ RX RY RZ
   position 0.000000 0.000000 0.000000
   orientation 0 0 0
:bonedata
   begin
      id 1
      name Spine_dum
      direction 0.000000 1.000000 0.000000
      length 7.508948
      axis 0.0 0.0 0.0 xyz
   end
   begin
      id 2
      name LeftUpLeg_dum
      direction 1.000000 0.000000 0.000000
      length 3.000560
      axis 0.0 0.0 0.0 xyz
   end
   begin
      id 3
      name RightUpLeg_dum
      direction -1.000000 0.000000 0.000000
      length 3.000560
      axis 0.0 0.0 0.0 xyz
   end
   begin
      id 4
      name Spine
      direction 0.000000 1.000000 0.000000
      length 0.000000
      axis 0.0 0.0 0.0 xyz
      dof rx ry rz
   end
   begin
      id 5
      name Spine_dum1
      direction 0.000000 1.000000 0.000000
      length 13.861154
      axis 0.0 0.0 0.0 xyz
   end
   begin
      id 6
      name Spine_dum2
      direction 0.000000 1.000000 0.000000
      length 8.204781
      axis 0.0 0.0 0.0 xyz
   end
   begin
      id 7
      name Spine_dum3
      direction 0.000000 1.000000 0.000000
      length 8.204781
      axis 0.0 0.0 0.0 xyz
   end
   begin
      id 8
      name Head
      direction 0.000000 1.000000 0.000000
      length 4.527550
      axis 0.0 0.0 0.0 xyz
      dof rx ry rz
   end
   begin
      id 9
      name LeftShoulder
      direction 1.000000 0.000000 0.000000
      length 6.635956
      axis 0.0 0.0 -90.0 xyz
      dof rx ry rz
   end
   begin
      id 10
      name LeftArm
      direction 1.000000 0.000000 0.000000
      length 10.274218
      axis 0.0 0.0 -90.0 xyz
      dof rx ry rz
   end
   begin
      id 11
      name LeftForeArm
      direction 1.000000 0.000000 0.000000
      length 8.522147
      axis 0.0 0.0 -90.0 xyz
      dof ry rz rx
   end
   begin
      id 12
      name LeftHand
      direction 0.000000 0.000000 0.000000
      length 0.000000
      axis 0.0 0.0 -90.0 xyz
      dof rx ry rz
   end
   begin
      id 13
      name LeftHand_dum1
      direction 0.000000 0.000000 0.000000
      length 0.000000
      axis 0.0 0.0 -90.0 xyz
   end
   begin
      id 14
      name LeftHand_dum2
      direction 1.000000 0.000000 0.000000
      length 3.937000
      axis 0.0 0.0 -90.0 xyz
   end
   begin
      id 15
      name LeftHandThumb1
      direction 0.000000 0.000000 1.000000
      length 3.937000
      axis 0.0 0.0 -90.0 xyz
      dof rx rz ry
   end
   begin
      id 16
      name RightShoulder
      direction -1.000000 0.000000 0.000000
      length 6.635956
      axis 0.0 0.0 90.0 xyz
      dof rx ry rz
   end
   begin
      id 17
      name RightArm
      direction -1.000000 0.000000 0.000000
      length 10.274218
      axis 0.0 0.0 90.0 xyz
      dof rx ry rz
   end
   begin
      id 18
      name RightForeArm
      direction -1.000000 0.000000 0.000000
      length 8.522147
      axis 0.0 0.0 90.0 xyz
      dof ry rz rx
   end
   begin
      id 19
      name RightHand
      direction 0.000000 0.000000 0.000000
      length 0.000000
      axis 0.0 0.0 90.0 xyz
      dof rx ry rz
   end
   begin
      id 20
      name RightHand_dum1
      direction 0.000000 0.000000 0.000000
      length 0.000000
      axis 0.0 0.0 90.0 xyz
   end
   begin
      id 21
      name RightHand_dum2
      direction -1.000000 0.000000 0.000000
      length 3.937000
      axis 0.0 0.0 90.0 xyz
   end
   begin
      id 22
      name RightHandThumb1
      direction 0.000000 0.000000 1.000000
      length 3.937000
      axis 0.0 0.0 90.0 xyz
      dof rx rz ry
   end
   begin
      id 23
      name LeftUpLeg
      direction 0.000000 -1.000000 0.000000
      length 16.490845
      axis 0.0 0.0 0.0 xyz
      dof rx ry rz
   end
   begin
      id 24
      name LeftLeg
      direction 0.000000 -1.000000 0.000000
      length 14.556576
      axis 0.0 0.0 0.0 xyz
      dof rx ry rz
   end
   begin
      id 25
      name LeftFoot
      direction 0.000000 -0.258819 0.965926
      length 4.831116
      axis 15.0 0.0 0.0 xyz
      dof rx ry rz
   end
   begin
      id 26
      name LeftToeBase
      direction 0.000000 0.000000 1.000000
      length 2.952750
      axis 0.0 0.0 0.0 xyz
      dof rx ry rz
   end
   begin
      id 27
      name RightUpLeg
      direction 0.000000 -1.000000 0.000000
      length 16.490845
      axis 0.0 0.0 0.0 xyz
      dof rx ry rz
   end
   begin
      id 28
      name RightLeg
      direction 0.000000 -1.000000 0.000000
      length 14.556576
      axis 0.0 0.0 0.0 xyz
      dof rx ry rz
   end
   begin
      id 29
      name RightFoot
      direction 0.000000 -0.258819 0.965926
      length 4.831116
      axis 15.0 0.0 0.0 xyz
      dof rx ry rz
   end
   begin
      id 30
      name RightToeBase
      direction 0.000000 0.000000 1.000000
      length 2.952750
      axis 0.0 0.0 0.0 xyz
      dof rx ry rz
   end
:hierarchy
   begin
      root Spine_dum LeftUpLeg_dum RightUpLeg_dum
      Spine_dum Spine
      LeftUpLeg_dum LeftUpLeg
      RightUpLeg_dum RightUpLeg
      Spine Spine_dum1 Spine_dum2 Spine_dum3
      Spine_dum1 Head
      Spine_dum2 LeftShoulder
      Spine_dum3 RightShoulder
      LeftShoulder LeftArm
      LeftArm LeftForeArm
      LeftForeArm LeftHand
      LeftHand LeftHand_dum1 LeftHand_dum2
      LeftHand_dum1 LeftHandThumb1
      RightShoulder RightArm
      RightArm RightForeArm
      RightForeArm RightHand
      RightHand RightHand_dum1 RightHand_dum2
      RightHand_dum1 RightHandThumb1
      LeftUpLeg LeftLeg
      LeftLeg LeftFoot
      LeftFoot LeftToeBase
      RightUpLeg RightLeg
      RightLeg RightFoot
      RightFoot RightToeBase
   end

# File created by Blade
# Date/Time:  Thu Sep 25 19:32:06 2014
# Frame Rate: 120.000 fps
#------------------------------------------------------
:FULLY-SPECIFIED
:DEGREES
117
root -3.653057 32.795064 -7.986099 17.013963 12.990804 -1.305242
Spine -17.342655 -2.475064 6.468315
Head -11.713082 -9.045688 4.657324
LeftShoulder -10.589019 15.936166 23.710111
LeftArm 24.555703 -20.446055 -33.902434
LeftForeArm 10.470037 0.000000 16.477087
LeftHand -25.234255 -0.000000 -6.388536
LeftHandThumb1 -26.253704 0.000000 33.147579
RightShoulder -20.146166 14.573812 -39.896421
RightArm -7.732678 10.975430 28.285307
RightForeArm -23.144815 -0.000000 17.028667
RightHand -9.646179 -0.000000 7.151069
RightHandThumb1 -24.326973 -0.000000 -32.862282
LeftUpLeg 3.128455 -0.489287 -7.110423
LeftLeg 3.380715 -0.000000 -0.000000
LeftFoot 3.521486 -26.034537 -40.775762
LeftToeBase -4.801713 -0.000000 0.000000
RightUpLeg -18.871524 -7.371459 10.095630
RightLeg 13.513512 -0.000000 -0.000000
RightFoot -14.138909 -12.285132 -0.628626
RightToeBase -1.593101 -0.000000 0.000000
118
root -3.675250 32.783207 -8.008677 17.105257 13.202405 -1.424100
Spine -17.394020 -2.515898 6.580705
Head -11.908488 -9.166368 4.714282
LeftShoulder -10.511670 15.877069 23.726263
LeftArm 24.563377 -20.170608 -33.946905
LeftForeArm 10.266343 -0.000000 16.600357
LeftHand -25.332257 -0.000000 -6.471083
LeftHandThumb1 -26.253704 0.000000 33.147579
RightShoulder -20.151992 14.565142 -39.890274
RightArm -7.846378 11.056068 28.264182
RightForeArm -23.085233 -0.000000 17.111099
RightHand -9.605526 -0.000000 7.025690
RightHandThumb1 -24.326973 -0.000000 -32.862282
LeftUpLeg 2.858975 -0.586126 -7.285224
LeftLeg 2.970213 -0.000000 -0.000000
LeftFoot 3.820193 -26.215310 -41.470152
LeftToeBase -4.066916 -0.000000 0.000000
RightUpLeg -19.099728 -7.272342 10.261913
RightLeg 13.647704 -0.000000 -0.000000
RightFoot -14.203601 -12.472196 -0.531905
RightToeBase -1.577097 -0.000000 0.000000
119
root -3.695182 32.773382 -8.031637 17.208779 13.381481 -1.508070
Spine -17.456430 -2.579149 6.650506
Head -12.082507 -9.254226 4.782005
LeftShoulder -10.482152 15.912572 23.657747
LeftArm 24.701493 -20.272371 -34.128181
LeftForeArm 10.435366 -0.000000 16.633477
LeftHand -25.263550 -0.000000 -6.667251
LeftHandThumb1 -26.253704 0.000000 33.147579
RightShoulder -20.121448 14.561801 -39.861064
RightArm -7.946227 11.136105 28.261377
RightForeArm -22.989075 0.000000 17.209696
RightHand -9.645544 -0.000000 6.868458
RightHandThumb1 -24.326973 -0.000000 -32.862282
LeftUpLeg 2.557944 -0.682531 -7.510044
LeftLeg 2.647277 -0.000000 -0.000000
LeftFoot 3.093470 -26.265156 -40.076812
LeftToeBase -5.370853 -0.000000 0.000000
RightUpLeg -19.338514 -7.163114 10.382639
RightLeg 13.793988 -0.000000 -0.000000
RightFoot -14.264012 -12.643401 -0.452586
RightToeBase -1.578127 -0.000000 0.000000
120
root -3.717884 32.763321 -8.055287 17.277867 13.550588 -1.625237
Spine -17.469876 -2.605632 6.743415
Head -12.272926 -9.371596 4.830756
LeftShoulder -10.386158 15.895432 23.635699
LeftArm 24.710155 -20.229881 -34.243201
LeftForeArm 10.446614 0.000000 16.718297
LeftHand -25.365253 -0.000000 -6.722076
LeftHandThumb1 -26.253704 0.000000 33.147579
RightShoulder -20.114331 14.480310 -39.829871
RightArm -7.993214 11.289425 28.291300
RightForeArm -22.854011 0.000000 17.287590
RightHand -9.599850 -0.000000 6.710019
RightHandThumb1 -24.326973 -0.000000 -32.862282
LeftUpLeg 2.269512 -0.729481 -7.666264
LeftLeg 2.262021 -0.000000 -0.000000
LeftFoot 3.961071 -26.541520 -41.657660
LeftToeBase -5.547717 -0.000000 0.000000
RightUpLeg -19.549332 -7.030984 10.530811
RightLeg 13.931317 -0.000000 -0.000000
RightFoot -14.290583 -12.821271 -0.371862
RightToeBase -1.585037 -0.000000 0.000000
121
root -3.738640 32.752763 -8.081912 17.350812 13.707275 -1.722165
Spine -17.463962 -2.612708 6.802601
Head -12.505364 -9.495166 4.905599
LeftShoulder -10.304957 15.827677 23.601574
LeftArm 24.759778 -20.158865 -34.316284
LeftForeArm 10.411945 0.000000 16.667385
LeftHand -25.189645 -0.000000 -6.489170
LeftHandThumb1 -26.253704 0.000000 33.147579
RightShoulder -20.141680 14.481099 -39.798197
RightArm -8.037290 11.322220 28.290340
RightForeArm -22.747249 0.000000 17.336069
RightHand -9.661065 -0.000000 6.625089
RightHandThumb1 -24.326973 -0.000000 -32.862282
LeftUpLeg 1.962716 -0.755518 -7.848547
LeftLeg 1.878767 -0.000000 -0.000000
LeftFoot 4.534610 -26.798384 -42.436032
LeftToeBase -6.977488 -0.000000 0.000000
RightUpLeg -19.769804 -6.887621 10.654932
RightLeg 14.080831 -0.000000 -0.000000
RightFoot -14.338856 -13.047105 -0.337016
RightToeBase -1.583142 -0.000000 0.000000
122
root -3.758746 32.742522 -8.106588 17.415155 13.843081 -1.817994
Spine -17.449705 -2.582821 6.851255
Head -12.729119 -9.627825 4.974219
LeftShoulder -10.244962 15.855628 23.571849
LeftArm 24.886350 -20.177159 -34.517440
LeftForeArm 10.485317 -0.000000 16.770837
LeftHand -25.414953 -0.000000 -6.206277
LeftHandThumb1 -26.253704 0.000000 33.147579
RightShoulder -20.189514 14.448464 -39.762704
RightArm -8.060386 11.390905 28.295663
RightForeArm -22.657112 0.000000 17.406443
RightHand -9.648768 -0.000000 6.434073
RightHandThumb1 -24.326973 -0.000000 -32.862282
LeftUpLeg 1.678016 -0.983931 -8.035346
LeftLeg 1.536095 -0.000000 -0.000000
LeftFoot 3.345180 -26.799213 -41.149450
LeftToeBase -5.260279 -0.000000 0.000000
RightUpLeg -19.974616 -6.745122 10.775577
RightLeg 14.219950 -0.000000 -0.000000
RightFoot -14.371609 -13.250557 -0.293440
RightToeBase -1.611855 -0.000000 0.000000
123
root -3.779287 32.732288 -8.135683 17.480836 13.978789 -1.891369
Spine -17.421594 -2.589775 6.879083
Head -12.942362 -9.738794 5.062061
LeftShoulder -10.222751 15.960331 23.530185
LeftArm 25.060399 -20.194250 -34.688856
LeftForeArm 10.499707 -0.000000 16.816291
LeftHand -25.433410 -0.000000 -6.047189
LeftHandThumb1 -26.253704 0.000000 33.147579
RightShoulder -20.206267 14.431206 -39.759895
RightArm -8.106280 11.472143 28.362458
RightForeArm -22.578302 0.000000 17.483237
RightHand -9.667358 -0.000000 6.270861
RightHandThumb1 -24.326973 -0.000000 -32.862282
LeftUpLeg 1.352630 -1.098391 -8.230332
LeftLeg 1.184522 -0.000000 -0.000000
LeftFoot 3.314726 -26.968755 -41.240413
LeftToeBase -4.467889 -0.000000 0.000000
RightUpLeg -20.191204 -6.614357 10.878934
RightLeg 14.374982 -0.000000 -0.000000
RightFoot -14.419110 -13.466452 -0.273736
RightToeBase -1.584874 -0.000000 0.000000
124
root -3.800349 32.721145 -8.163914 17.537436 14.110133 -1.966547
Spine -17.377664 -2.632413 6.903685
Head -13.165076 -9.806576 5.176768
LeftShoulder -10.193661 15.920561 23.499366
LeftArm 25.097760 -20.173309 -34.807834
LeftForeArm 10.580130 -0.000000 16.862003
LeftHand -25.514798 -0.000000 -6.424034
LeftHandThumb1 -26.253704 0.000000 33.147579
RightShoulder -20.205276 14.490193 -39.732334
RightArm -8.135895 11.477982 28.398269
RightForeArm -22.446939 -0.000000 17.502128
RightHand -9.729181 -0.000000 6.238000
RightHandThumb1 -24.326973 -0.000000 -32.862282
LeftUpLeg 1.034044 -1.303627 -8.415935
LeftLeg 0.852163 -0.000000 -0.000000
LeftFoot 2.939164 -26.983970 -40.833627
LeftToeBase -4.153992 -0.000000 0.000000
RightUpLeg -20.389479 -6.512841 10.996706
RightLeg 14.506902 -0.000000 -0.000000
RightFoot -14.449760 -13.710497 -0.347264
RightToeBase -1.596363 -0.000000 0.000000
125
root -3.820238 32.710317 -8.188578 17.576816 14.222821 -2.061353
Spine -17.338864 -2.626077 6.961891
Head -13.347433 -9.914842 5.227041
LeftShoulder -10.160951 15.919492 23.464215
LeftArm 25.147365 -20.069880 -34.920719
LeftForeArm 10.714133 -0.000000 16.862513
LeftHand -25.326715 -0.000000 -6.406039
LeftHandThumb1 -26.253704 0.000000 33.147579
RightShoulder -20.211727 14.501081 -39.731549
RightArm -8.160841 11.598460 28.446213
RightForeArm -22.474762 0.000000 17.557779
RightHand -9.693647 -0.000000 6.135532
RightHandThumb1 -24.326973 -0.000000 -32.862282
LeftUpLeg 0.726586 -1.461350 -8.567273
LeftLeg 0.531163 -0.000000 -0.000000
LeftFoot 2.803205 -26.881135 -40.852826
LeftToeBase -4.591033 -0.000000 0.000000
RightUpLeg -20.555215 -6.387082 11.113363
RightLeg 14.612390 -0.000000 -0.000000
RightFoot -14.464341 -13.892461 -0.344971
RightToeBase -1.674201 -0.000000 0.000000
126
root -3.840607 32.699823 -8.218304 17.632030 14.351486 -2.156122
Spine -17.314916 -2.616842 7.024319
Head -13.510579 -10.052781 5.258961
LeftShoulder -10.142869 15.957572 23.388970
LeftArm 25.286002 -19.947511 -35.003746
LeftForeArm 10.627628 0.000000 16.858463
LeftHand -25.432806 -0.000000 -6.175421
LeftHandThumb1 -26.253704 0.000000 33.147579
RightShoulder -20.229844 14.483202 -39.742991
RightArm -8.151773 11.666105 28.508855
RightForeArm -22.438427 0.000000 17.565672
RightHand -9.634304 -0.000000 6.022116
RightHandThumb1 -24.326973 -0.000000 -32.862282
LeftUpLeg 0.365596 -1.621492 -8.708904
LeftLeg 0.265215 -0.000000 -0.000000
LeftFoot 2.448452 -26.769021 -40.185099
LeftToeBase -5.395641 -0.000000 0.000000
RightUpLeg -20.744879 -6.297754 11.243368
RightLeg 14.712513 -0.000000 -0.000000
RightFoot -14.487920 -14.050321 -0.360738
RightToeBase -1.707584 -0.000000 0.000000
127
root -3.862179 32.690224 -8.246797 17.672869 14.520332 -2.241809
Spine -17.285479 -2.629408 7.076185
Head -13.636438 -10.198070 5.293680
LeftShoulder -10.049953 15.961474 23.339048
LeftArm 25.308649 -19.822092 -35.052451
LeftForeArm 10.615548 -0.000000 16.866280
LeftHand -25.399770 -0.000000 -6.046322
LeftHandThumb1 -26.253704 0.000000 33.147579
RightShoulder -20.220232 14.473747 -39.758123
RightArm -8.249385 11.781543 28.573440
RightForeArm -22.332474 0.000000 17.679760
RightHand -9.631047 -0.000000 6.025808
RightHandThumb1 -24.326973 -0.000000 -32.862282
LeftUpLeg 0.012249 -1.760366 -8.824126
LeftLeg 0.022351 -0.000000 -0.000000
LeftFoot 2.056680 -26.513860 -40.014411
LeftToeBase -4.874342 -0.000000 0.000000
RightUpLeg -20.916184 -6.278937 11.386000
RightLeg 14.808277 -0.000000 -0.000000
RightFoot -14.509572 -14.194096 -0.408048
RightToeBase -1.696765 -0.000000 0.000000
128
root -3.883323 32.679026 -8.266638 17.677147 14.665561 -2.315594
Spine -17.233005 -2.639498 7.093317
Head -13.737721 -10.334859 5.335259
LeftShoulder -10.064679 16.068270 23.259621
LeftArm 25.553069 -19.848838 -35.245411
LeftForeArm 10.634575 0.000000 16.891333
LeftHand -25.523501 -0.000000 -5.938042
LeftHandThumb1 -26.253704 0.000000 33.147579
RightShoulder -20.222096 14.479314 -39.752315
RightArm -8.325284 11.825827 28.629898
RightForeArm -22.240994 -0.000000 17.792038
RightHand -9.672882 -0.000000 5.879291
RightHandThumb1 -24.326973 -0.000000 -32.862282
LeftUpLeg -0.267120 -1.860369 -8.936405
LeftLeg -0.253311 -0.000000 0.000000
LeftFoot 1.562166 -26.045025 -39.969374
LeftToeBase -3.952106 -0.000000 0.000000
RightUpLeg -21.014696 -6.292623 11.533179
RightLeg 14.857055 -0.000000 -0.000000
RightFoot -14.519065 -14.401188 -0.596624
RightToeBase -1.627530 -0.000000 0.000000
129
root -3.910995 32.667428 -8.289749 17.678768 14.839490 -2.397178
Spine -17.166572 -2.683905 7.082454
Head -13.850683 -10.467765 5.495940
LeftShoulder -9.982955 16.034403 23.291192
LeftArm 25.571084 -19.710894 -35.368760
LeftForeArm 10.660830 0.000000 16.951281
LeftHand -25.621885 -0.000000 -5.772975
LeftHandThumb1 -26.253704 0.000000 33.147579
RightShoulder -20.223440 14.484832 -39.691778
RightArm -8.395896 11.936248 28.671764
RightForeArm -22.133335 -0.000000 17.886926
RightHand -9.570558 0.000000 5.864223
RightHandThumb1 -24.326973 -0.000000 -32.862282
LeftUpLeg -0.577659 -1.876968 -9.005945
LeftLeg -0.468654 -0.000000 0.000000
LeftFoot 0.972696 -25.649755 -39.517417
LeftToeBase -3.803467 -0.000000 0.000000
RightUpLeg -21.123996 -6.283458 11.691264
RightLeg 14.914938 -0.000000 -0.000000
RightFoot -14.542130 -14.631153 -0.748569
RightToeBase -1.588240 -0.000000 0.000000
